# xmcd CD database file
#
# Track frame offsets:
#	150
#	31398
#	43483
#	55962
#	69097
#	83611
#	98909
#	111417
#	125685
#	138736
#	151793
#	165334
#	177628
#	201990
#	226623
#	241178
#	255065
#	269864
#	283415
#	297084
#	310654
#	322432
#	335342
#
# Disc length: 4647 seconds
#
# Revision: 0
# Processed by: cddbd v1.5.2PL0 Copyright (c) Steve Scherf et al.
# Submitted via: CDex 1.51
#
DISCID=57122517
DTITLE=Lucky Thompson - A Proper Introduction to Lucky Thompson: Just One More Chance
DYEAR=2004
DGENRE=Jazz
TTITLE0=Test Pilots, Parts 1 and 2
TTITLE1=I'm In The Mood For Love
TTITLE2=Sugar Hip
TTITLE3=Why Not
TTITLE4=No-Good Man Blues
TTITLE5=Irresistible You
TTITLE6=Phace
TTITLE7=Rhythm In A Riff
TTITLE8=Don't Drive This Jive Away
TTITLE9=Yout Rhythm
TTITLE10=The Hour Of Parting
TTITLE11=Cherokee
TTITLE12=Oodie Coo Bop (Ornithology) Parts 1 and 2
TTITLE13=Bopin' Bop Parts 1 and 2
TTITLE14=Just One More Chance
TTITLE15=From Dixieland To Bop
TTITLE16=Boulevard Bounce
TTITLE17=Boppin' The Blues
TTITLE18=Stay In There
TTITLE19=Over The Rainbow
TTITLE20=Flamingo
TTITLE21=Mambo In Blues
TTITLE22=The Scene Is Clean
EXTD=YEAR: 2004
EXTT0=
EXTT1=
EXTT2=
EXTT3=
EXTT4=
EXTT5=
EXTT6=
EXTT7=
EXTT8=
EXTT9=
EXTT10=
EXTT11=
EXTT12=
EXTT13=
EXTT14=
EXTT15=
EXTT16=
EXTT17=
EXTT18=
EXTT19=
EXTT20=
EXTT21=
EXTT22=
PLAYORDER=
